<svg display="none" xmlns="http://www.w3.org/2000/svg" xmlns:xlink="http://www.w3.org/1999/xlink">

    <symbol id="icon-logo" viewBox="0 0 40 40">
        <path d="M7.69091 33.4795V34.8479C5.84364 34.8479 4.26545 34.2246 2.96364 32.9322C1.66182 31.6398 1 29.9977 1 27.983V9H2.30909V16.2982H7.69091V17.6667H2.30909V27.7017C2.30909 29.3591 2.85455 30.7199 3.90909 31.807C4.96364 32.8941 6.18545 33.4795 7.69091 33.4795Z"/>
        <path d="M20.6364 16.2982V34.8479H19.3273V16.2982H20.6364Z"/>
        <path d="M19.9818 11.4327C20.6245 11.4327 21.1454 10.8882 21.1454 10.2164C21.1454 9.54459 20.6245 9 19.9818 9C19.3392 9 18.8182 9.54459 18.8182 10.2164C18.8182 10.8882 19.3392 11.4327 19.9818 11.4327Z"/>
        <path d="M38.9636 33.4795V34.8479C37.1164 34.8479 35.5382 34.2246 34.2364 32.9322C32.9345 31.6398 32.2727 29.9901 32.2727 27.983V9H33.5818V16.2982H38.9636V17.6667H33.5818V27.7017C33.5818 29.3591 34.1273 30.7199 35.1818 31.807C36.2364 32.8941 37.4582 33.4795 38.9636 33.4795Z"/>
    </symbol>

    <symbol id="icon-arrow" viewBox="0 0 24 24">
        <g clip-path="url(#clip0)">
            <path d="M5.89342 11.6406L17.3946 0.139445C17.5946 -0.050558 17.9096 -0.0455887 18.0996 0.14943C18.2847 0.34445 18.2847 0.649495 18.0996 0.844515L6.95351 11.9906L18.0996 23.1417C18.2997 23.3317 18.3046 23.6518 18.1096 23.8468C17.9196 24.0468 17.5996 24.0518 17.4045 23.8568C17.3995 23.8518 17.3946 23.8468 17.3946 23.8468L5.89342 12.3457C5.69841 12.1506 5.69841 11.8356 5.89342 11.6406Z"/>
        </g>
        <defs>
            <clipPath id="clip0">
                <rect width="24" height="24" fill="white" transform="matrix(-1 0 0 1 24 0)"/>
            </clipPath>
        </defs>
    </symbol>

    <symbol id="icon-vector" viewBox="0 0 22 22">
        <g clip-path="url(#clip0)">
            <path d="M15.6604 5.33789L14.7408 6.25753L18.833 10.3498H0.677429V11.6504H18.833L14.7408 15.7426L15.6604 16.6622L21.3226 11L15.6604 5.33789Z" fill="white"/>
        </g>
        <defs>
            <clipPath id="clip0">
                <rect width="20.6452" height="20.6452" fill="white" transform="translate(0.677429 0.677734)"/>
            </clipPath>
        </defs>
    </symbol>

    <symbol id="icon-instagram" viewBox="0 0 24 24">
        <g clip-path="url(#clip0)">
            <path d="M19.9804 6.38005C19.9336 5.31738 19.7617 4.5868 19.5156 3.95374C19.2616 3.28176 18.8709 2.68014 18.359 2.18002C17.8589 1.6721 17.2533 1.27743 16.5891 1.02745C15.9524 0.781274 15.2257 0.609427 14.163 0.562573C13.0924 0.511752 12.7525 0.5 10.0372 0.5C7.3218 0.5 6.98193 0.511752 5.91529 0.558605C4.85262 0.605459 4.12204 0.777459 3.48914 1.02348C2.81702 1.27743 2.21541 1.66814 1.71528 2.18002C1.20737 2.68014 0.81286 3.28573 0.562721 3.94992C0.316551 4.5868 0.144704 5.31341 0.0978511 6.37609C0.0470298 7.4467 0.0352783 7.78658 0.0352783 10.502C0.0352783 13.2173 0.0470298 13.5572 0.0938831 14.6239C0.140736 15.6865 0.312735 16.4171 0.558906 17.0502C0.81286 17.7221 1.20737 18.3238 1.71528 18.8239C2.21541 19.3318 2.82099 19.7265 3.48518 19.9765C4.12204 20.2226 4.84865 20.3945 5.91147 20.4413C6.97796 20.4883 7.31799 20.4999 10.0333 20.4999C12.7487 20.4999 13.0886 20.4883 14.1552 20.4413C15.2179 20.3945 15.9485 20.2226 16.5814 19.9765C17.9254 19.4568 18.9881 18.3941 19.5078 17.0502C19.7538 16.4133 19.9258 15.6865 19.9726 14.6239C20.0195 13.5572 20.0312 13.2173 20.0312 10.502C20.0312 7.78658 20.0273 7.4467 19.9804 6.38005ZM18.1794 14.5457C18.1364 15.5225 17.9723 16.0499 17.8356 16.4015C17.4995 17.2728 16.808 17.9643 15.9367 18.3004C15.5851 18.4372 15.0538 18.6012 14.0809 18.6441C13.026 18.6911 12.7096 18.7027 10.0411 18.7027C7.37262 18.7027 7.05228 18.6911 6.00121 18.6441C5.02447 18.6012 4.49702 18.4372 4.14539 18.3004C3.71181 18.1402 3.31714 17.8862 2.9968 17.5541C2.66471 17.2298 2.41075 16.8391 2.25051 16.4055C2.11376 16.0539 1.9497 15.5225 1.90681 14.5497C1.85981 13.4948 1.84821 13.1783 1.84821 10.5097C1.84821 7.84122 1.85981 7.52087 1.90681 6.46995C1.9497 5.49319 2.11376 4.96575 2.25051 4.61412C2.41075 4.18038 2.66471 3.78586 3.00077 3.46536C3.32493 3.13327 3.71563 2.87931 4.14936 2.71921C4.50099 2.58247 5.0324 2.4184 6.00518 2.37537C7.06007 2.32851 7.37659 2.31676 10.0449 2.31676C12.7174 2.31676 13.0338 2.32851 14.0849 2.37537C15.0616 2.4184 15.589 2.58247 15.9407 2.71921C16.3743 2.87931 16.7689 3.13327 17.0893 3.46536C17.4214 3.78967 17.6753 4.18038 17.8356 4.61412C17.9723 4.96575 18.1364 5.49701 18.1794 6.46995C18.2263 7.52484 18.238 7.84122 18.238 10.5097C18.238 13.1783 18.2263 13.4908 18.1794 14.5457Z" fill="#C13584"/>
            <path d="M10.0376 5.36328C7.20122 5.36328 4.8999 7.66445 4.8999 10.501C4.8999 13.3376 7.20122 15.6387 10.0376 15.6387C12.8742 15.6387 15.1753 13.3376 15.1753 10.501C15.1753 7.66445 12.8742 5.36328 10.0376 5.36328ZM10.0376 13.8337C8.19751 13.8337 6.70491 12.3413 6.70491 10.501C6.70491 8.66074 8.19751 7.16829 10.0376 7.16829C11.8779 7.16829 13.3703 8.66074 13.3703 10.501C13.3703 12.3413 11.8779 13.8337 10.0376 13.8337Z" fill="#C13584"/>
            <path d="M16.5775 5.15647C16.5775 5.81884 16.0405 6.35591 15.3779 6.35591C14.7155 6.35591 14.1785 5.81884 14.1785 5.15647C14.1785 4.49395 14.7155 3.95703 15.3779 3.95703C16.0405 3.95703 16.5775 4.49395 16.5775 5.15647Z" fill="#C13584"/>
        </g>
        <defs>
            <clipPath id="clip0">
                <rect width="20" height="20" fill="white" transform="translate(0 0.5)"/>
            </clipPath>
        </defs>
    </symbol>

    <symbol id="icon-zen" viewBox="0 0 24 24">
        <g clip-path="url(#clip0)">
            <path d="M13.9286 14.4286C12.3571 16.05 12.2429 18.0714 12.1071 22.5C16.2357 22.5 19.0857 22.4857 20.5571 21.0571C21.9857 19.5857 22 16.6 22 12.6071C17.5714 12.75 15.55 12.8571 13.9286 14.4286ZM2 12.6071C2 16.6 2.01429 19.5857 3.44286 21.0571C4.91429 22.4857 7.76429 22.5 11.8929 22.5C11.75 18.0714 11.6429 16.05 10.0714 14.4286C8.45 12.8571 6.42857 12.7429 2 12.6071ZM11.8929 2.5C7.77143 2.5 4.91429 2.51429 3.44286 3.94286C2.01429 5.41429 2 8.4 2 12.3929C6.42857 12.25 8.45 12.1429 10.0714 10.5714C11.6429 8.95 11.7571 6.92857 11.8929 2.5ZM13.9286 10.5714C12.3571 8.95 12.2429 6.92857 12.1071 2.5C16.2357 2.5 19.0857 2.51429 20.5571 3.94286C21.9857 5.41429 22 8.4 22 12.3929C17.5714 12.25 15.55 12.1429 13.9286 10.5714Z" fill="#2C3036"/>
            <path d="M22 12.6071V12.3929C17.5714 12.25 15.55 12.1429 13.9286 10.5714C12.3571 8.95 12.2429 6.92857 12.1071 2.5H11.8929C11.75 6.92857 11.6429 8.95 10.0714 10.5714C8.45 12.1429 6.42857 12.2571 2 12.3929V12.6071C6.42857 12.75 8.45 12.8571 10.0714 14.4286C11.6429 16.05 11.7571 18.0714 11.8929 22.5H12.1071C12.25 18.0714 12.3571 16.05 13.9286 14.4286C15.55 12.8571 17.5714 12.7429 22 12.6071Z" fill="white"/>
        </g>
        <defs>
            <clipPath id="clip0">
                <rect width="20" height="20" fill="white" transform="translate(2 2.5)"/>
            </clipPath>
        </defs>
    </symbol>
</svg>
